<svg width="0" height="0" class="hidden">
  <!-- logo -->
  <symbol fill="currentColor" version="1.1" id="logo" xmlns="http://www.w3.org/2000/svg" xmlns:xlink="http://www.w3.org/1999/xlink" xml:space="preserve" viewBox="0 0 512 512">
    <g>
      <g>
        <circle cx="395.636" cy="453.818" r="11.636"></circle>
      </g>
    </g>
    <g>
      <g>
        <path d="M232.727,23.273V11.636C232.727,4.655,228.073,0,221.091,0c-6.982,0-11.636,4.655-11.636,11.636v46.545
			c0,6.982,4.655,11.636,11.636,11.636c6.982,0,11.636-4.655,11.636-11.636V46.545c6.982,0,11.636,4.655,11.636,11.636v46.545
			c0,29.091-16.291,57.018-41.891,70.982c-5.818,3.491-8.145,10.473-4.655,16.291c2.327,3.491,5.818,5.818,10.473,5.818
			c2.327,0,3.491,0,5.818-1.164c32.582-18.618,53.527-53.527,53.527-91.927V58.182C267.636,38.4,252.509,23.273,232.727,23.273z"></path>
      </g>
    </g>
    <g>
      <g>
        <path d="M445.673,424.727c-3.491-5.818-10.473-6.982-16.291-4.655c-5.818,3.491-6.982,10.473-4.655,16.291
			c3.491,5.818,4.655,11.636,4.655,17.455c0,19.782-15.127,34.909-34.909,34.909c-19.782,0-34.909-15.127-34.909-34.909
			c0-19.782,15.127-34.909,34.909-34.909c6.982,0,11.636-4.655,11.636-11.636v-81.455c0-38.4-31.418-69.818-69.818-69.818
			s-69.818,31.418-69.818,69.818v46.545c0,25.6-20.945,46.545-46.545,46.545c-25.6,0-46.545-20.945-46.545-46.545v-153.6
			c0-16.291-11.636-31.418-27.927-33.745c-36.073-8.145-64-41.891-64-80.291V58.182c0-6.982,4.655-11.636,11.636-11.636v11.636
			c0,6.982,4.655,11.636,11.636,11.636s11.636-4.655,11.636-11.636V11.636C116.364,4.655,111.709,0,104.727,0
			S93.091,4.655,93.091,11.636v11.636c-19.782,0-34.909,15.127-34.909,34.909v46.545c0,50.036,34.909,93.091,83.782,102.4
			c4.655,1.164,9.309,5.818,9.309,11.636v153.6c0,38.4,31.418,69.818,69.818,69.818c38.4,0,69.818-31.418,69.818-69.818v-46.545
			c0-25.6,20.945-46.545,46.545-46.545c25.6,0,46.545,20.945,46.545,46.545V396.8c-26.764,5.818-46.545,29.091-46.545,57.018
			c0,32.582,25.6,58.182,58.182,58.182c32.582,0,58.182-25.6,58.182-58.182C453.818,443.345,451.491,434.036,445.673,424.727z"></path>
      </g>
    </g>
  </symbol>

  <!-- add -->
  <symbol xmlns="http://www.w3.org/2000/svg" viewBox="0 0 24 24" id="add">
    <title></title>
    <g id="Complete">
      <g id="add-2">
        <g>
          <line fill="none" stroke="currentColor" stroke-linecap="round" stroke-linejoin="round" stroke-width="2" x1="12" x2="12" y1="19" y2="5"></line>
          <line fill="none" stroke="currentColor" stroke-linecap="round" stroke-linejoin="round" stroke-width="2" x1="5" x2="19" y1="12" y2="12"></line>
        </g>
      </g>
    </g>
  </symbol>

  <!-- cancel -->
  <symbol fill="none" xmlns="http://www.w3.org/2000/svg" viewBox="0 0 24 24" id="cancel">
    <path d="M6.75827 17.2426L12.0009 12M17.2435 6.75736L12.0009 12M12.0009 12L6.75827 6.75736M12.0009 12L17.2435 17.2426" stroke="currentColor" stroke-width="1.5" stroke-linecap="round" stroke-linejoin="round"></path>
  </symbol>

  <!-- delete -->
  <symbol xmlns="http://www.w3.org/2000/svg" viewBox="0 0 1024 1024" id="delete">
    <path fill="currentColor" d="M160 256H96a32 32 0 010-64h256V95.936a32 32 0 0132-32h256a32 32 0 0132 32V192h256a32 32 0 110 64h-64v672a32 32 0 01-32 32H192a32 32 0 01-32-32V256zm448-64v-64H416v64h192zM224 896h576V256H224v640zm192-128a32 32 0 01-32-32V416a32 32 0 0164 0v320a32 32 0 01-32 32zm192 0a32 32 0 01-32-32V416a32 32 0 0164 0v320a32 32 0 01-32 32z"></path>
  </symbol>

  <!-- edit -->
  <symbol xmlns="http://www.w3.org/2000/svg" fill="currentColor" viewBox="0 0 24 24" id="edit">
    <g id="SVGRepo_bgCarrier" stroke-width="0"></g>
    <g id="SVGRepo_tracerCarrier" stroke-linecap="round" stroke-linejoin="round"></g>
    <g id="SVGRepo_iconCarrier">
      <path d="M18.52 4l-1 1H2V4zM2 8v1h11.52l1-1zm4.52 8H2v1h3.655a1.477 1.477 0 0 1 .282-.417zM2 12v1h7.52l1-1zm20.95-6.066a.965.965 0 0 1 .03 1.385L9.825 20.471 5.73 22.227a.371.371 0 0 1-.488-.487l1.756-4.097L20.15 4.491a.965.965 0 0 1 1.385.03zM9.02 19.728l-1.28-1.28-.96 2.24zM20.093 8.79L18.68 7.376 8.382 17.674l1.413 1.414zm1.865-2.445l-.804-.838a.42.42 0 0 0-.6-.007l-1.167 1.17L20.8 8.083l1.152-1.151a.42.42 0 0 0 .006-.587z"></path>
      <path fill="none" d="M0 0h24v24H0z"></path>
    </g>
  </symbol>

  <!-- save -->
  <symbol xmlns="http://www.w3.org/2000/svg" version="1.1" fill="none" stroke="currentColor" stroke-linecap="round" stroke-linejoin="round" stroke-width="1.5" viewBox="0 0 16 16" id="save">
    <polyline points="2.75 8.75,6.25 12.25,13.25 4.75"></polyline>
  </symbol>
</svg>